<svg width="61" height="57" viewBox="0 0 61 57" fill="none" xmlns="http://www.w3.org/2000/svg">
<g filter="url(#filter0_dd_1_777)">
<rect x="14" y="13" width="29" height="29" rx="14.5" fill="#282828" shape-rendering="crispEdges"/>
<path d="M31.1669 34C31.5204 34 31.8595 33.8629 32.1096 33.6189C32.3596 33.3748 32.5 33.0438 32.5 32.6987C32.5 32.3535 32.3596 32.0225 32.1096 31.7784L29.052 28.7938L27.8336 27.5081L29.052 26.1905L32.1096 23.2059C32.3525 22.9604 32.4869 22.6316 32.4838 22.2903C32.4808 21.949 32.3406 21.6226 32.0933 21.3812C31.8461 21.1399 31.5117 21.003 31.1621 21C30.8124 20.9971 30.4756 21.1283 30.2241 21.3654L24.8904 26.5719C24.6404 26.816 24.5 27.147 24.5 27.4921C24.5 27.8373 24.6404 28.1683 24.8904 28.4124L30.2241 33.6189C30.4742 33.8629 30.8133 34 31.1669 34Z" fill="white"/>
</g>
<defs>
<filter id="filter0_dd_1_777" x="0" y="0" width="61" height="57" filterUnits="userSpaceOnUse" color-interpolation-filters="sRGB">
<feFlood flood-opacity="0" result="BackgroundImageFix"/>
<feColorMatrix in="SourceAlpha" type="matrix" values="0 0 0 0 0 0 0 0 0 0 0 0 0 0 0 0 0 0 127 0" result="hardAlpha"/>
<feOffset dx="-4" dy="-3"/>
<feGaussianBlur stdDeviation="5"/>
<feComposite in2="hardAlpha" operator="out"/>
<feColorMatrix type="matrix" values="0 0 0 0 0.741667 0 0 0 0 0.741667 0 0 0 0 0.741667 0 0 0 0.3 0"/>
<feBlend mode="normal" in2="BackgroundImageFix" result="effect1_dropShadow_1_777"/>
<feColorMatrix in="SourceAlpha" type="matrix" values="0 0 0 0 0 0 0 0 0 0 0 0 0 0 0 0 0 0 127 0" result="hardAlpha"/>
<feOffset dx="8" dy="5"/>
<feGaussianBlur stdDeviation="5"/>
<feComposite in2="hardAlpha" operator="out"/>
<feColorMatrix type="matrix" values="0 0 0 0 0 0 0 0 0 0 0 0 0 0 0 0 0 0 0.36 0"/>
<feBlend mode="normal" in2="effect1_dropShadow_1_777" result="effect2_dropShadow_1_777"/>
<feBlend mode="normal" in="SourceGraphic" in2="effect2_dropShadow_1_777" result="shape"/>
</filter>
</defs>
</svg>
