<svg width="62" height="58" viewBox="0 0 62 58" fill="none" xmlns="http://www.w3.org/2000/svg">
<g filter="url(#filter0_dd_1_1479)">
<rect x="14" y="13" width="29.287" height="29.287" rx="14.6435" fill="#282828" shape-rendering="crispEdges"/>
<path fill-rule="evenodd" clip-rule="evenodd" d="M22.4393 21.4393C23.0251 20.8536 23.9749 20.8536 24.5607 21.4393L28.6435 25.5222L32.7263 21.4393C33.3121 20.8536 34.2618 20.8536 34.8476 21.4393C35.4334 22.0251 35.4334 22.9749 34.8476 23.5607L30.7648 27.6435L34.8476 31.7263C35.4334 32.3121 35.4334 33.2618 34.8476 33.8476C34.2618 34.4334 33.3121 34.4334 32.7263 33.8476L28.6435 29.7648L24.5607 33.8476C23.9749 34.4334 23.0251 34.4334 22.4393 33.8476C21.8536 33.2618 21.8536 32.3121 22.4393 31.7263L26.5222 27.6435L22.4393 23.5607C21.8536 22.9749 21.8536 22.0251 22.4393 21.4393Z" fill="white"/>
</g>
<defs>
<filter id="filter0_dd_1_1479" x="0" y="0" width="61.287" height="57.287" filterUnits="userSpaceOnUse" color-interpolation-filters="sRGB">
<feFlood flood-opacity="0" result="BackgroundImageFix"/>
<feColorMatrix in="SourceAlpha" type="matrix" values="0 0 0 0 0 0 0 0 0 0 0 0 0 0 0 0 0 0 127 0" result="hardAlpha"/>
<feOffset dx="-4" dy="-3"/>
<feGaussianBlur stdDeviation="5"/>
<feComposite in2="hardAlpha" operator="out"/>
<feColorMatrix type="matrix" values="0 0 0 0 0.741667 0 0 0 0 0.741667 0 0 0 0 0.741667 0 0 0 0.3 0"/>
<feBlend mode="normal" in2="BackgroundImageFix" result="effect1_dropShadow_1_1479"/>
<feColorMatrix in="SourceAlpha" type="matrix" values="0 0 0 0 0 0 0 0 0 0 0 0 0 0 0 0 0 0 127 0" result="hardAlpha"/>
<feOffset dx="8" dy="5"/>
<feGaussianBlur stdDeviation="5"/>
<feComposite in2="hardAlpha" operator="out"/>
<feColorMatrix type="matrix" values="0 0 0 0 0 0 0 0 0 0 0 0 0 0 0 0 0 0 0.36 0"/>
<feBlend mode="normal" in2="effect1_dropShadow_1_1479" result="effect2_dropShadow_1_1479"/>
<feBlend mode="normal" in="SourceGraphic" in2="effect2_dropShadow_1_1479" result="shape"/>
</filter>
</defs>
</svg>
